<?xml version="1.0" encoding="UTF-8"?>
<svg width="24px" height="24px" viewBox="0 0 24 24" version="1.1" xmlns="http://www.w3.org/2000/svg" xmlns:xlink="http://www.w3.org/1999/xlink">
    <!-- Generator: Sketch 52.4 (67378) - http://www.bohemiancoding.com/sketch -->
    <title>Shape</title>
    <desc>Created with Sketch.</desc>
    <g id="Page-1" stroke="none" stroke-width="1" fill="none" fill-rule="evenodd">
        <g id="location" fill="#1AA1F3" fill-rule="nonzero">
            <path d="M16,12 C16,14.206 14.206,16 12,16 C9.794,16 8,14.206 8,12 C8,9.794 9.794,8 12,8 C14.206,8 16,9.794 16,12 M13,19.931 L13,19 C13,18.4477153 12.5522847,18 12,18 C11.4477153,18 11,18.4477153 11,19 L11,19.931 C7.38074006,19.4688862 4.53111378,16.6192599 4.069,13 L5,13 C5.55228475,13 6,12.5522847 6,12 C6,11.4477153 5.55228475,11 5,11 L4.069,11 C4.53111378,7.38074006 7.38074006,4.53111378 11,4.069 L11,5 C11,5.55228475 11.4477153,6 12,6 C12.5522847,6 13,5.55228475 13,5 L13,4.069 C16.6192599,4.53111378 19.4688862,7.38074006 19.931,11 L19,11 C18.4477153,11 18,11.4477153 18,12 C18,12.5522847 18.4477153,13 19,13 L19.931,13 C19.4688862,16.6192599 16.6192599,19.4688862 13,19.931 M23,11 L21.949,11 C21.479,6.283 17.717,2.521 13,2.051 L13,1 C13,0.44771525 12.5522847,0 12,0 C11.4477153,0 11,0.44771525 11,1 L11,2.051 C6.283,2.521 2.521,6.283 2.051,11 L1,11 C0.44771525,11 0,11.4477153 0,12 C0,12.5522847 0.44771525,13 1,13 L2.051,13 C2.521,17.717 6.283,21.479 11,21.949 L11,23 C11,23.5522847 11.4477153,24 12,24 C12.5522847,24 13,23.5522847 13,23 L13,21.949 C17.717,21.479 21.479,17.717 21.949,13 L23,13 C23.5522847,13 24,12.5522847 24,12 C24,11.4477153 23.5522847,11 23,11" id="Shape"></path>
        </g>
    </g>
</svg>