<svg width="18px" height="19px" viewBox="0 0 18 19" version="1.1" xmlns="http://www.w3.org/2000/svg" xmlns:xlink="http://www.w3.org/1999/xlink">
                        <defs>
                            <path d="M254.97787,23.62283 L259.748949,28.3939085 C260.083684,28.7286436 260.083684,29.2713564 259.748949,29.6060915 C259.414214,29.9408266 258.871501,29.9408266 258.536766,29.6060915 L253.667298,24.7366239 C252.475425,25.5346111 251.042062,26 249.5,26 C245.357857,26 242,22.6421429 242,18.5 C242,14.3578571 245.357857,11 249.5,11 C253.642143,11 257,14.3578571 257,18.5 C257,20.4807621 256.232149,22.2821795 254.97787,23.62283 Z M249.503896,13.1272727 C246.539186,13.1272727 244.127273,15.5391861 244.127273,18.503896 C244.127273,21.468606 246.539186,23.8805194 249.503896,23.8805194 C252.468606,23.8805194 254.880519,21.468606 254.880519,18.503896 C254.880519,15.5391861 252.468606,13.1272727 249.503896,13.1272727 Z"
                            id="path-1"></path>
                        </defs>
                        <g id="Page-1" stroke="none" stroke-width="1" fill="none" fill-rule="evenodd">
                            <g id="Desktop-HD" transform="translate(-296.000000, -77.000000)">
                                <g id="Group" transform="translate(54.000000, 66.000000)">
                                    <mask id="mask-2" fill="white">
                                        <use xlink:href="#path-1"></use>
                                    </mask>
                                    <use id="Search" fill="#1AA1F3" xlink:href="#path-1"></use>
                                </g>
                            </g>
                        </g>
                    </svg>